<?xml version="1.0" encoding="UTF-8"?> <svg xmlns="http://www.w3.org/2000/svg" xmlns:xlink="http://www.w3.org/1999/xlink" width="500" zoomAndPan="magnify" viewBox="0 0 375 374.999991" height="500" preserveAspectRatio="xMidYMid meet"> <defs> <clipPath id="id1"> <path d="M 32.230469 21.210938 L 337.480469 21.210938 L 337.480469 348.210938 L 32.230469 348.210938 Z M 32.230469 21.210938 " clip-rule="nonzero"></path> </clipPath> </defs> <g clip-path="url(#id1)"> <path fill="#f29859" d="M 43.191406 146.5625 L 86.777344 146.5625 L 86.777344 157.460938 L 43.191406 157.460938 Z M 70.433594 97.511719 L 135.816406 97.511719 L 135.816406 135.664062 L 70.433594 135.664062 Z M 92.226562 32.113281 L 114.023438 32.113281 L 114.023438 59.363281 L 92.226562 59.363281 Z M 89.398438 70.261719 L 116.851562 70.261719 L 129.921875 86.613281 L 76.328125 86.613281 Z M 168.507812 110.667969 L 181.660156 97.511719 L 209.839844 97.511719 L 233.890625 121.570312 L 233.890625 135.664062 L 168.507812 135.664062 Z M 206.648438 75.710938 L 206.648438 86.613281 L 184.855469 86.613281 L 184.855469 75.710938 Z M 206.648438 32.113281 L 233.890625 32.113281 L 233.890625 45.84375 L 210.183594 64.8125 L 168.890625 64.8125 C 171.550781 46.355469 187.472656 32.113281 206.648438 32.113281 Z M 255.6875 43.011719 L 244.789062 43.011719 L 244.789062 32.113281 L 255.6875 32.113281 Z M 261.136719 157.460938 L 184.855469 157.460938 L 184.855469 146.5625 L 261.136719 146.5625 Z M 163.058594 146.5625 L 173.957031 146.5625 L 173.957031 184.710938 C 173.957031 186.777344 175.128906 188.671875 176.957031 189.589844 L 209.691406 205.960938 C 211.289062 206.746094 212.480469 208.128906 213.035156 209.832031 C 213.609375 211.535156 213.460938 213.390625 212.523438 215.304688 C 210.925781 218.457031 207.117188 219.734375 203.96875 218.15625 L 181.851562 207.085938 C 180.152344 206.257812 178.148438 206.34375 176.53125 207.320312 C 174.9375 208.324219 173.957031 210.066406 173.957031 211.960938 L 173.957031 266.460938 C 173.957031 272.464844 169.0625 277.363281 163.058594 277.363281 L 163.058594 228.3125 L 152.164062 228.3125 L 152.164062 277.363281 L 141.265625 277.363281 L 141.265625 228.3125 L 130.367188 228.3125 L 130.367188 277.363281 L 119.472656 277.363281 L 119.472656 228.3125 L 108.574219 228.3125 L 108.574219 277.363281 C 102.570312 277.363281 97.675781 272.464844 97.675781 266.460938 L 97.675781 146.5625 Z M 233.488281 250.113281 L 228.441406 250.113281 C 210.414062 250.113281 195.75 264.78125 195.75 282.8125 L 195.75 315.511719 C 195.75 319.34375 196.453125 323.007812 197.667969 326.414062 L 80.671875 326.414062 L 60.28125 168.363281 L 86.777344 168.363281 L 86.777344 266.460938 C 86.777344 278.492188 96.546875 288.261719 108.574219 288.261719 L 163.058594 288.261719 C 175.085938 288.261719 184.855469 278.492188 184.855469 266.460938 L 184.855469 220.777344 L 199.09375 227.910156 C 207.585938 232.167969 217.992188 228.695312 222.398438 219.902344 C 224.503906 215.667969 224.867188 210.878906 223.398438 206.40625 C 221.910156 201.9375 218.78125 198.316406 214.566406 196.207031 L 184.855469 181.347656 L 184.855469 168.363281 L 244.042969 168.363281 Z M 283.824219 263.929688 C 287.65625 262.011719 291.933594 261.011719 296.1875 261.011719 L 304.722656 261.011719 C 316.75 261.011719 326.519531 270.785156 326.519531 282.8125 C 326.519531 294.839844 316.75 304.613281 304.722656 304.613281 L 296.1875 304.613281 C 291.933594 304.613281 287.65625 303.613281 283.824219 301.695312 C 278.417969 298.992188 272.5 297.652344 266.582031 297.652344 C 260.667969 297.652344 254.75 298.992188 249.34375 301.695312 C 245.511719 303.613281 241.234375 304.613281 236.976562 304.613281 L 228.441406 304.613281 C 216.417969 304.613281 206.648438 294.839844 206.648438 282.8125 C 206.648438 270.785156 216.417969 261.011719 228.441406 261.011719 L 236.976562 261.011719 C 241.234375 261.011719 245.511719 262.011719 249.34375 263.929688 C 260.132812 269.335938 273.03125 269.335938 283.824219 263.929688 Z M 304.722656 337.3125 L 296.1875 337.3125 C 291.933594 337.3125 287.65625 336.289062 283.824219 334.394531 C 278.417969 331.691406 272.5 330.351562 266.582031 330.351562 C 260.667969 330.351562 254.75 331.691406 249.34375 334.394531 C 245.511719 336.289062 241.234375 337.3125 236.976562 337.3125 L 228.441406 337.3125 C 216.417969 337.3125 206.648438 327.542969 206.648438 315.511719 L 206.648438 307.125 C 212.4375 312.320312 220.058594 315.511719 228.441406 315.511719 L 236.976562 315.511719 C 242.9375 315.511719 248.898438 314.109375 254.21875 311.445312 C 261.964844 307.570312 271.203125 307.570312 278.949219 311.445312 C 284.269531 314.109375 290.230469 315.511719 296.1875 315.511719 L 304.722656 315.511719 C 313.109375 315.511719 320.730469 312.320312 326.519531 307.125 L 326.519531 315.511719 C 326.519531 327.542969 316.75 337.3125 304.722656 337.3125 Z M 37.742188 168.363281 L 49.296875 168.363281 L 70.476562 332.566406 C 70.835938 335.269531 73.136719 337.3125 75.882812 337.3125 L 204.136719 337.3125 C 210.140625 343.976562 218.800781 348.210938 228.441406 348.210938 L 236.976562 348.210938 C 242.9375 348.210938 248.898438 346.808594 254.21875 344.148438 C 261.964844 340.273438 271.203125 340.273438 278.949219 344.148438 C 284.269531 346.808594 290.230469 348.210938 296.1875 348.210938 L 304.722656 348.210938 C 322.75 348.210938 337.414062 333.542969 337.414062 315.511719 L 337.414062 282.8125 C 337.414062 264.78125 322.75 250.113281 304.722656 250.113281 L 296.1875 250.113281 C 290.230469 250.113281 284.269531 251.519531 278.949219 254.179688 C 271.203125 258.054688 261.964844 258.054688 254.21875 254.179688 C 251.109375 252.625 247.789062 251.558594 244.382812 250.902344 L 255.027344 168.363281 L 266.582031 168.363281 C 269.585938 168.363281 272.03125 165.914062 272.03125 162.914062 L 272.03125 141.113281 C 272.03125 138.109375 269.585938 135.664062 266.582031 135.664062 L 244.789062 135.664062 L 244.789062 119.3125 C 244.789062 117.863281 244.214844 116.480469 243.191406 115.460938 L 217.546875 89.804688 L 217.546875 72.882812 L 225.804688 66.28125 L 239.914062 94.511719 L 249.664062 89.613281 L 234.507812 59.300781 L 241.257812 53.914062 L 261.136719 53.914062 C 264.136719 53.914062 266.582031 51.464844 266.582031 48.460938 L 266.582031 26.664062 C 266.582031 23.660156 264.136719 21.210938 261.136719 21.210938 L 206.648438 21.210938 C 179.617188 21.210938 157.609375 43.226562 157.609375 70.261719 C 157.609375 73.265625 160.058594 75.710938 163.058594 75.710938 L 173.957031 75.710938 L 173.957031 89.804688 L 159.207031 104.558594 C 158.1875 105.582031 157.609375 106.964844 157.609375 108.414062 L 157.609375 135.664062 L 146.714844 135.664062 L 146.714844 92.0625 C 146.714844 91.382812 146.566406 90.722656 146.308594 90.105469 C 146.222656 89.871094 146.097656 89.699219 145.96875 89.488281 C 145.820312 89.210938 145.714844 88.910156 145.523438 88.65625 L 124.917969 62.898438 L 124.917969 26.664062 C 124.917969 23.660156 122.472656 21.210938 119.472656 21.210938 L 86.777344 21.210938 C 83.777344 21.210938 81.332031 23.660156 81.332031 26.664062 L 81.332031 62.898438 L 60.726562 88.65625 C 60.535156 88.910156 60.429688 89.210938 60.28125 89.488281 C 60.152344 89.699219 60.027344 89.871094 59.941406 90.105469 C 59.683594 90.722656 59.535156 91.382812 59.535156 92.0625 L 59.535156 135.664062 L 37.742188 135.664062 C 34.742188 135.664062 32.292969 138.109375 32.292969 141.113281 L 32.292969 162.914062 C 32.292969 165.914062 34.742188 168.363281 37.742188 168.363281 " fill-opacity="1" fill-rule="nonzero"></path> </g> <path fill="#f29859" d="M 310.171875 271.914062 L 299.273438 271.914062 L 299.273438 282.8125 L 310.171875 282.8125 L 310.171875 271.914062 " fill-opacity="1" fill-rule="nonzero"></path> <path fill="#f29859" d="M 255.6875 271.914062 L 244.789062 271.914062 L 244.789062 282.8125 L 255.6875 282.8125 L 255.6875 271.914062 " fill-opacity="1" fill-rule="nonzero"></path> <path fill="#f29859" d="M 222.996094 288.261719 L 233.890625 288.261719 L 233.890625 277.363281 L 222.996094 277.363281 L 222.996094 288.261719 " fill-opacity="1" fill-rule="nonzero"></path> <path fill="#f29859" d="M 288.378906 277.363281 L 277.480469 277.363281 L 277.480469 288.261719 L 288.378906 288.261719 L 288.378906 277.363281 " fill-opacity="1" fill-rule="nonzero"></path> </svg> 