<?xml version="1.0" encoding="UTF-8"?> <svg xmlns="http://www.w3.org/2000/svg" xmlns:xlink="http://www.w3.org/1999/xlink" width="500" zoomAndPan="magnify" viewBox="0 0 375 374.999991" height="500" preserveAspectRatio="xMidYMid meet"> <defs> <clipPath id="id1"> <path d="M 7 70.039062 L 368 70.039062 L 368 292 L 7 292 Z M 7 70.039062 " clip-rule="nonzero"></path> </clipPath> </defs> <g clip-path="url(#id1)"> <path fill="#f29859" d="M 360.992188 70.039062 L 147.832031 70.039062 C 143.980469 70.039062 140.863281 73.15625 140.863281 76.996094 L 140.863281 104.996094 L 93.097656 104.996094 C 90.460938 104.996094 88.058594 106.476562 86.871094 108.828125 L 57.574219 166.8125 L 11.757812 185.226562 C 9.121094 186.292969 7.394531 188.847656 7.394531 191.6875 L 7.394531 251.683594 C 7.394531 255.53125 10.507812 258.640625 14.363281 258.640625 L 31.757812 258.640625 C 35.078125 277.394531 51.46875 291.699219 71.183594 291.699219 C 90.902344 291.699219 107.300781 277.394531 110.609375 258.640625 L 245.195312 258.640625 C 248.515625 277.394531 264.90625 291.699219 284.621094 291.699219 C 304.339844 291.699219 320.738281 277.394531 324.046875 258.640625 L 360.992188 258.640625 C 364.847656 258.640625 367.960938 255.53125 367.960938 251.683594 L 367.960938 76.996094 C 367.960938 73.15625 364.847656 70.039062 360.992188 70.039062 Z M 71.183594 277.785156 C 56.777344 277.785156 45.050781 266.082031 45.050781 251.6875 C 45.050781 237.304688 56.777344 225.589844 71.183594 225.589844 C 85.589844 225.589844 97.320312 237.304688 97.320312 251.6875 C 97.320312 266.082031 85.597656 277.785156 71.183594 277.785156 Z M 140.863281 244.730469 L 110.609375 244.730469 C 107.292969 225.988281 90.902344 211.671875 71.183594 211.671875 C 51.46875 211.671875 35.070312 225.988281 31.757812 244.730469 L 21.332031 244.730469 L 21.332031 196.390625 L 59.546875 181.039062 L 140.863281 181.039062 Z M 140.863281 167.113281 L 73.046875 167.113281 L 97.390625 118.914062 L 140.863281 118.914062 Z M 284.621094 277.785156 C 270.214844 277.785156 258.488281 266.082031 258.488281 251.6875 C 258.488281 237.304688 270.214844 225.589844 284.621094 225.589844 C 299.027344 225.589844 310.757812 237.304688 310.757812 251.6875 C 310.757812 266.082031 299.035156 277.785156 284.621094 277.785156 Z M 354.023438 244.730469 L 324.046875 244.730469 C 320.730469 225.988281 304.339844 211.671875 284.621094 211.671875 C 264.90625 211.671875 248.507812 225.988281 245.195312 244.730469 L 154.804688 244.730469 L 154.804688 83.957031 L 354.023438 83.957031 Z M 354.023438 244.730469 " fill-opacity="1" fill-rule="nonzero"></path> </g> <path fill="#f29859" d="M 229.171875 149.707031 C 230.457031 150.722656 231.976562 151.210938 233.496094 151.210938 C 235.550781 151.210938 237.585938 150.3125 238.957031 148.582031 C 241.355469 145.566406 240.847656 141.191406 237.828125 138.804688 L 228.238281 131.203125 L 300.582031 131.203125 C 304.4375 131.203125 307.550781 128.09375 307.550781 124.242188 C 307.550781 120.402344 304.4375 117.285156 300.582031 117.285156 L 228.238281 117.285156 L 237.828125 109.691406 C 240.847656 107.304688 241.355469 102.929688 238.957031 99.914062 C 236.566406 96.894531 232.175781 96.394531 229.171875 98.789062 L 203.910156 118.796875 C 202.242188 120.109375 201.269531 122.128906 201.269531 124.242188 C 201.269531 126.375 202.242188 128.378906 203.910156 129.699219 Z M 229.171875 149.707031 " fill-opacity="1" fill-rule="nonzero"></path> <path fill="#f29859" d="M 208.238281 179.917969 L 280.578125 179.917969 L 270.988281 187.515625 C 267.972656 189.910156 267.464844 194.289062 269.859375 197.296875 C 271.234375 199.027344 273.269531 199.925781 275.324219 199.925781 C 276.84375 199.925781 278.371094 199.4375 279.644531 198.421875 L 304.910156 178.414062 C 306.574219 177.09375 307.550781 175.082031 307.550781 172.957031 C 307.550781 170.835938 306.574219 168.824219 304.910156 167.507812 L 279.644531 147.5 C 276.628906 145.113281 272.25 145.621094 269.859375 148.628906 C 267.464844 151.648438 267.972656 156.027344 270.988281 158.40625 L 280.578125 166 L 208.238281 166 C 204.382812 166 201.269531 169.117188 201.269531 172.957031 C 201.269531 176.808594 204.390625 179.917969 208.238281 179.917969 Z M 208.238281 179.917969 " fill-opacity="1" fill-rule="nonzero"></path> </svg> 