<?xml version="1.0" encoding="UTF-8"?> <svg xmlns="http://www.w3.org/2000/svg" xmlns:xlink="http://www.w3.org/1999/xlink" width="500" zoomAndPan="magnify" viewBox="0 0 375 374.999991" height="500" preserveAspectRatio="xMidYMid meet"> <defs> <clipPath id="id1"> <path d="M 247 157 L 311 157 L 311 362.785156 L 247 362.785156 Z M 247 157 " clip-rule="nonzero"></path> </clipPath> </defs> <path fill="#f29859" d="M 70.464844 164.117188 C 72.472656 163.3125 73.679688 161.300781 73.679688 159.289062 L 73.679688 33.714844 L 92.171875 59.070312 C 93.378906 61.488281 96.59375 62.292969 99.007812 61.085938 C 101.417969 59.878906 102.222656 56.65625 101.015625 54.242188 C 100.613281 53.839844 72.875 15.203125 72.875 15.203125 C 72.070312 13.996094 70.464844 13.191406 68.855469 13.191406 C 66.445312 13.191406 65.238281 14.398438 64.835938 15.203125 L 39.109375 56.253906 C 37.5 58.667969 38.304688 61.488281 40.714844 63.097656 C 41.519531 63.5 42.324219 63.902344 43.53125 63.902344 C 45.136719 63.902344 46.746094 63.097656 47.953125 61.488281 L 64.03125 35.730469 L 64.03125 146.003906 L 47.550781 126.285156 C 45.941406 124.273438 42.726562 123.871094 40.3125 125.882812 C 39.109375 126.6875 38.707031 128.296875 38.707031 129.503906 L 38.707031 208.390625 C 38.707031 211.207031 41.117188 213.21875 43.53125 213.21875 C 45.941406 213.21875 48.355469 210.804688 48.355469 208.390625 L 48.355469 143.1875 L 64.835938 162.910156 C 66.445312 164.519531 68.855469 164.921875 70.464844 164.117188 Z M 70.464844 164.117188 " fill-opacity="1" fill-rule="nonzero"></path> <g clip-path="url(#id1)"> <path fill="#f29859" d="M 304.828125 157.675781 C 302.015625 157.675781 300.007812 160.09375 300.007812 162.507812 L 300.007812 242.597656 L 283.523438 222.878906 C 281.914062 220.867188 278.699219 220.464844 276.289062 222.476562 C 275.082031 223.28125 274.679688 224.890625 274.679688 226.097656 L 274.679688 339.996094 L 256.589844 311.421875 C 254.980469 309.007812 252.167969 308.203125 249.757812 309.8125 C 247.34375 311.421875 246.539062 314.238281 248.148438 316.652344 L 275.484375 359.71875 C 276.289062 361.328125 277.894531 362.132812 279.90625 362.132812 C 282.316406 362.132812 283.523438 360.925781 283.925781 360.121094 L 309.253906 319.066406 C 310.859375 316.652344 310.054688 313.433594 307.644531 312.226562 C 305.230469 310.617188 302.015625 311.421875 300.808594 313.835938 L 284.730469 339.59375 L 284.730469 240.183594 L 301.210938 259.90625 C 302.820312 261.917969 306.035156 262.320312 308.449219 260.308594 C 309.652344 259.503906 310.054688 257.894531 310.054688 256.683594 L 310.054688 162.910156 C 310.054688 160.09375 307.644531 157.675781 304.828125 157.675781 C 305.230469 157.675781 304.828125 157.675781 304.828125 157.675781 Z M 304.828125 157.675781 " fill-opacity="1" fill-rule="nonzero"></path> </g> <path fill="#f29859" d="M 235.6875 281.234375 C 180.613281 310.617188 112.675781 289.6875 83.328125 234.550781 C 82.523438 232.535156 81.316406 230.925781 80.515625 228.914062 C 73.679688 214.023438 70.0625 198.328125 70.464844 181.824219 C 70.464844 179.007812 68.050781 176.996094 65.640625 176.996094 C 62.824219 176.996094 60.816406 179.410156 60.816406 181.824219 C 60.816406 199.535156 64.433594 216.839844 72.070312 232.941406 C 100.210938 294.515625 172.972656 321.484375 234.078125 293.308594 C 236.488281 292.101562 238.5 291.296875 240.910156 290.089844 C 243.324219 288.882812 244.53125 286.066406 243.726562 283.652344 C 242.921875 281.234375 238.5 279.625 235.6875 281.234375 Z M 235.6875 281.234375 " fill-opacity="1" fill-rule="nonzero"></path> <path fill="#f29859" d="M 188.652344 226.097656 L 189.457031 226.097656 C 196.289062 226.097656 201.917969 220.464844 201.917969 213.621094 L 201.917969 201.546875 C 201.917969 198.730469 199.105469 195.105469 194.28125 191.886719 L 188.652344 189.472656 Z M 188.652344 226.097656 " fill-opacity="1" fill-rule="nonzero"></path> <path fill="#f29859" d="M 162.925781 150.03125 L 162.925781 162.105469 C 162.925781 165.726562 166.945312 169.347656 170.160156 171.363281 L 178.601562 174.582031 L 178.601562 137.152344 L 175.386719 137.152344 C 168.550781 137.554688 162.925781 143.1875 162.925781 150.03125 Z M 162.925781 150.03125 " fill-opacity="1" fill-rule="nonzero"></path> <path fill="#f29859" d="M 182.621094 93.683594 C 133.578125 93.683594 94.183594 133.125 94.183594 182.226562 C 94.183594 231.328125 133.578125 270.773438 182.621094 270.773438 C 231.664062 270.773438 271.0625 231.328125 271.0625 182.226562 C 271.0625 133.125 231.664062 93.683594 182.621094 93.683594 Z M 212.371094 155.664062 C 212.371094 158.480469 209.957031 160.496094 207.546875 160.496094 C 205.132812 160.496094 202.722656 158.078125 202.722656 155.664062 L 202.722656 150.03125 C 202.722656 143.1875 197.09375 137.554688 190.261719 137.554688 L 189.457031 137.554688 L 189.457031 178.605469 C 189.457031 178.605469 200.308594 183.03125 200.710938 183.03125 C 209.152344 188.265625 213.175781 194.703125 213.175781 201.144531 L 213.175781 213.21875 C 213.175781 225.695312 203.125 235.757812 190.660156 235.757812 L 189.859375 235.757812 L 189.859375 247.027344 C 189.859375 249.84375 187.445312 251.855469 185.035156 251.855469 C 182.621094 251.855469 180.210938 249.441406 180.210938 247.027344 L 180.210938 235.757812 L 176.992188 235.757812 C 164.53125 235.757812 154.480469 225.695312 154.078125 213.21875 L 154.078125 207.582031 C 154.078125 204.765625 156.492188 202.753906 158.902344 202.753906 C 161.316406 202.753906 163.726562 205.167969 163.726562 207.582031 L 163.726562 213.21875 C 163.726562 220.058594 169.355469 225.695312 176.59375 225.695312 L 179.808594 225.695312 L 179.808594 185.449219 L 166.140625 180.214844 C 156.894531 174.984375 152.875 168.945312 152.875 162.105469 L 152.875 150.03125 C 152.875 137.554688 162.925781 127.492188 175.789062 127.492188 L 179.003906 127.492188 L 179.003906 117.027344 C 179.003906 114.210938 181.414062 112.199219 183.828125 112.199219 C 186.238281 112.199219 188.652344 114.613281 188.652344 117.027344 L 188.652344 127.492188 L 189.457031 127.492188 C 201.917969 127.492188 211.96875 137.554688 211.96875 150.03125 L 211.96875 155.664062 Z M 212.371094 155.664062 " fill-opacity="1" fill-rule="nonzero"></path> <path fill="#f29859" d="M 334.175781 159.289062 C 331.363281 159.289062 329.351562 161.703125 329.351562 164.117188 L 329.351562 243.804688 C 329.351562 246.625 331.765625 248.636719 334.175781 248.636719 C 336.589844 248.636719 339 246.222656 339 243.804688 L 339 164.117188 C 339 161.300781 336.988281 159.289062 334.175781 159.289062 Z M 334.175781 159.289062 " fill-opacity="1" fill-rule="nonzero"></path> <path fill="#f29859" d="M 120.714844 103.34375 C 123.527344 103.34375 125.539062 100.929688 125.539062 98.515625 L 125.539062 85.636719 C 179.003906 54.242188 247.746094 71.546875 279.101562 125.078125 C 283.121094 131.917969 286.738281 139.566406 289.152344 147.214844 C 289.957031 149.226562 291.5625 150.835938 293.976562 150.835938 C 294.378906 150.835938 295.183594 150.835938 295.585938 150.433594 C 298.398438 149.628906 299.605469 146.8125 298.800781 143.992188 C 277.894531 79.597656 208.753906 44.582031 144.433594 65.914062 C 138 67.925781 131.566406 70.742188 125.539062 73.964844 L 125.539062 59.476562 C 125.539062 56.65625 123.125 54.644531 120.714844 54.644531 C 118.300781 54.644531 115.890625 57.058594 115.890625 59.476562 L 115.890625 98.515625 C 115.890625 100.929688 117.898438 103.34375 120.714844 103.34375 Z M 120.714844 103.34375 " fill-opacity="1" fill-rule="nonzero"></path> </svg> 