<?xml version="1.0" encoding="UTF-8"?> <svg xmlns="http://www.w3.org/2000/svg" xmlns:xlink="http://www.w3.org/1999/xlink" width="500" zoomAndPan="magnify" viewBox="0 0 375 374.999991" height="500" preserveAspectRatio="xMidYMid meet"> <defs> <clipPath id="id1"> <path d="M 59.222656 17 L 319.472656 17 L 319.472656 362.960938 L 59.222656 362.960938 Z M 59.222656 17 " clip-rule="nonzero"></path> </clipPath> </defs> <g clip-path="url(#id1)"> <path fill="#f29859" d="M 305.011719 131.960938 C 297.105469 131.960938 290.554688 138.503906 290.554688 146.398438 L 290.554688 204.148438 C 290.609375 265.226562 248.703125 318.859375 189.347656 333.632812 C 130.042969 318.859375 88.082031 265.226562 88.136719 204.148438 L 88.136719 103.085938 L 95.761719 103.085938 C 132.246094 103.199219 166.8125 86.449219 189.347656 57.800781 C 211.882812 86.449219 246.445312 103.199219 282.929688 103.085938 L 305.011719 103.085938 C 312.917969 103.085938 319.472656 96.546875 319.472656 88.648438 C 319.472656 80.753906 312.917969 74.214844 305.011719 74.214844 L 282.929688 74.214844 C 248.816406 74.324219 217.414062 54.980469 202.28125 24.472656 C 199.570312 19.902344 194.597656 17.082031 189.347656 17.082031 C 184.039062 17.082031 179.125 19.902344 176.414062 24.472656 C 161.21875 54.980469 129.875 74.324219 95.761719 74.214844 L 73.679688 74.214844 C 65.714844 74.214844 59.222656 80.753906 59.222656 88.648438 L 59.222656 204.148438 C 59.109375 278.421875 110.164062 343.730469 182.398438 361.664062 L 185.84375 362.507812 C 188.105469 363.128906 190.53125 363.128906 192.847656 362.507812 L 196.292969 361.664062 C 268.472656 343.730469 319.527344 278.421875 319.414062 204.148438 L 319.414062 146.398438 C 319.414062 138.503906 312.917969 131.960938 304.957031 131.960938 " fill-opacity="1" fill-rule="nonzero"></path> </g> <path fill="#f29859" d="M 222.5 165.066406 L 174.886719 212.609375 L 156.195312 193.941406 C 153.484375 191.347656 149.867188 189.878906 146.140625 189.878906 C 138.234375 189.878906 131.683594 196.421875 131.683594 204.316406 C 131.683594 208.039062 133.152344 211.648438 135.75 214.355469 L 164.664062 243.230469 C 167.375 245.9375 171.046875 247.460938 174.886719 247.460938 C 178.726562 247.460938 182.398438 245.9375 185.109375 243.230469 L 242.945312 185.480469 C 245.542969 182.773438 247.011719 179.164062 247.011719 175.445312 C 247.011719 167.546875 240.457031 161.007812 232.550781 161.007812 C 228.824219 161.007812 225.210938 162.472656 222.5 165.066406 " fill-opacity="1" fill-rule="nonzero"></path> </svg> 